<?xml version="1.0" standalone="no"?>
<!DOCTYPE svg PUBLIC "-//W3C//DTD SVG 20010904//EN"
 "http://www.w3.org/TR/2001/REC-SVG-20010904/DTD/svg10.dtd">
<svg version="1.0" xmlns="http://www.w3.org/2000/svg"
 width="128.000000pt" height="128.000000pt" viewBox="0 0 128.000000 128.000000"
 preserveAspectRatio="xMidYMid meet">
<metadata>
Created by potrace 1.16, written by Peter Selinger 2001-2019
</metadata>
<g transform="translate(0.000000,128.000000) scale(0.100000,-0.100000)"
fill="#000000" stroke="none">
<path d="M167 1268 c-35 -27 -37 -62 -37 -627 0 -575 2 -611 40 -631 26 -14
967 -13 975 0 9 15 -14 40 -36 40 -17 0 -19 8 -19 75 0 59 3 75 15 75 8 0 22
11 30 24 14 20 15 86 13 530 -3 438 -5 508 -18 516 -24 16 -942 13 -963 -2z
m65 -150 c3 -101 5 -113 22 -116 29 -6 36 16 36 126 l0 102 400 0 400 0 0
-490 0 -490 -400 0 -400 0 0 349 c0 298 -2 350 -15 361 -12 10 -18 10 -30 0
-13 -11 -15 -63 -15 -361 0 -342 0 -349 -20 -349 -20 0 -20 7 -20 483 0 266 3
487 7 490 3 4 12 7 19 7 10 0 14 -28 16 -112z m808 -993 l0 -75 -422 2 -423 3
-3 58 c-2 35 2 64 9 73 9 12 81 14 425 14 l414 0 0 -75z"/>
<path d="M616 1085 c-3 -9 -6 -41 -6 -70 l0 -54 -72 -3 -73 -3 0 -75 0 -75 73
-3 72 -3 0 -194 c0 -106 3 -200 6 -209 9 -23 139 -23 148 0 3 9 6 103 6 210
l0 194 68 0 c40 0 73 5 80 12 16 16 16 120 0 136 -7 7 -40 12 -80 12 l-67 0
-3 68 -3 67 -71 3 c-59 2 -73 0 -78 -13z m94 -98 c0 -36 5 -68 12 -75 7 -7 40
-12 80 -12 61 0 68 -2 68 -20 0 -18 -7 -20 -64 -20 -98 0 -96 5 -96 -231 0
-192 -1 -199 -20 -199 -19 0 -20 7 -20 203 0 145 -3 206 -12 215 -7 7 -40 12
-80 12 -61 0 -68 2 -68 20 0 18 7 20 68 20 40 0 73 5 80 12 7 7 12 39 12 75 0
56 2 63 20 63 18 0 20 -7 20 -63z"/>
</g>
</svg>
