<?xml version="1.0" standalone="no"?>
<!DOCTYPE svg PUBLIC "-//W3C//DTD SVG 20010904//EN"
 "http://www.w3.org/TR/2001/REC-SVG-20010904/DTD/svg10.dtd">
<svg version="1.0" xmlns="http://www.w3.org/2000/svg"
 width="128.000000pt" height="128.000000pt" viewBox="0 0 128.000000 128.000000"
 preserveAspectRatio="xMidYMid meet">

<g transform="translate(0.000000,128.000000) scale(0.100000,-0.100000)"
fill="#000000" stroke="none">
<path d="M485 1268 c-3 -7 -6 -67 -7 -133 l-3 -120 -125 -5 -125 -5 0 -110 0
-110 127 -3 128 -3 2 -387 3 -387 155 0 155 0 3 387 2 387 128 3 127 3 0 110
0 110 -125 5 -125 5 -5 130 -5 130 -153 3 c-116 2 -154 0 -157 -10z m175 -147
c0 -66 3 -126 6 -135 5 -13 26 -16 130 -16 l124 0 0 -70 0 -70 -111 0 c-61 0
-119 -5 -130 -10 -18 -10 -19 -25 -19 -395 l0 -385 -70 0 -70 0 0 385 c0 370
-1 385 -19 395 -11 5 -69 10 -130 10 l-111 0 0 70 0 69 128 3 127 3 3 133 3
132 69 0 70 0 0 -119z m100 4 l0 -115 -25 0 -25 0 0 115 0 115 25 0 25 0 0
-115z m260 -225 c0 -68 -1 -70 -25 -70 -24 0 -25 2 -25 70 0 68 1 70 25 70 24
0 25 -2 25 -70z m-260 -490 l0 -370 -25 0 -25 0 0 370 0 370 25 0 25 0 0 -370z"/>
</g>
</svg>
