<?xml version="1.0" standalone="no"?>
<!DOCTYPE svg PUBLIC "-//W3C//DTD SVG 20010904//EN"
 "http://www.w3.org/TR/2001/REC-SVG-20010904/DTD/svg10.dtd">
<svg version="1.0" xmlns="http://www.w3.org/2000/svg"
 width="128.000000pt" height="128.000000pt" viewBox="0 0 128.000000 128.000000"
 preserveAspectRatio="xMidYMid meet">

<g transform="translate(0.000000,128.000000) scale(0.100000,-0.100000)"
fill="#000000" stroke="none">
<path d="M627 1274 c-4 -4 -7 -22 -7 -40 0 -28 -4 -33 -27 -36 -20 -2 -28 -9
-28 -23 0 -14 8 -21 28 -23 27 -3 27 -4 27 -77 l0 -74 -102 -78 -103 -78 -3
-125 -3 -125 -132 -39 c-197 -58 -177 -25 -177 -295 0 -126 3 -236 6 -245 5
-14 62 -16 534 -16 472 0 529 2 534 16 3 9 6 119 6 245 0 270 20 237 -177 295
l-132 39 -3 125 -3 125 -102 78 -103 78 0 74 c0 73 0 74 28 77 38 4 38 42 0
46 -23 3 -27 8 -30 39 -3 35 -17 51 -31 37z m103 -381 l90 -68 0 -120 c0 -66
4 -126 8 -132 5 -7 73 -33 153 -57 l144 -44 3 -216 2 -216 -180 0 -180 0 0
148 c0 161 -9 197 -62 235 -35 26 -101 26 -136 0 -53 -38 -62 -74 -62 -235 l0
-148 -180 0 -180 0 2 216 3 216 144 44 c80 24 148 50 153 57 4 6 8 66 8 132
l0 120 88 67 c48 37 88 67 90 67 1 1 43 -29 92 -66z m-35 -518 c14 -13 25 -33
25 -45 0 -18 -6 -20 -80 -20 -74 0 -80 2 -80 20 0 32 44 70 80 70 19 0 40 -9
55 -25z m25 -225 l0 -110 -80 0 -80 0 0 110 0 110 80 0 80 0 0 -110z"/>
<path d="M627 804 c-4 -4 -7 -49 -7 -101 0 -87 1 -93 20 -93 20 0 21 5 18 97
-3 89 -12 116 -31 97z"/>
</g>
</svg>
